<?xml version="1.0" encoding="UTF-8" standalone="no"?>
<svg width="344px" height="446px" viewBox="0 0 344 446" version="1.1" xmlns="http://www.w3.org/2000/svg" xmlns:xlink="http://www.w3.org/1999/xlink">
    <!-- Generator: Sketch 39.1 (31720) - http://www.bohemiancoding.com/sketch -->
    <title>Slice 1</title>
    <desc>Created with Sketch.</desc>
    <defs>
        <rect id="path-1" x="149" y="9" width="40" height="40"></rect>
        <mask id="mask-2" maskContentUnits="userSpaceOnUse" maskUnits="objectBoundingBox" x="0" y="0" width="40" height="40" fill="white">
            <use xlink:href="#path-1"></use>
        </mask>
        <rect id="path-3" x="149" y="9" width="40" height="40"></rect>
        <mask id="mask-4" maskContentUnits="userSpaceOnUse" maskUnits="objectBoundingBox" x="0" y="0" width="40" height="40" fill="white">
            <use xlink:href="#path-3"></use>
        </mask>
    </defs>
    <g id="Page-1" stroke="none" stroke-width="1" fill="none" fill-rule="evenodd">
        <g id="Group-2" transform="translate(3.000000, 0.000000)" stroke="#000000">
            <g id="Group">
                <use id="Rectangle" mask="url(#mask-2)" stroke-width="8" transform="translate(169.000000, 29.000000) rotate(45.000000) translate(-169.000000, -29.000000) " xlink:href="#path-1"></use>
                <path d="M206.5,39.5 L338.213699,171.213699" id="Line" stroke-width="4" stroke-linecap="square"></path>
                <path d="M0.5,170.5 L131.503815,39.4961833" id="Line" stroke-width="4" stroke-linecap="square"></path>
                <polyline id="Line" stroke-width="4" stroke-linecap="square" points="31.5 163.5 169 26.890625 306.5 163.5"></polyline>
            </g>
            <g id="Group-Copy" transform="translate(169.500000, 360.000000) scale(1, -1) translate(-169.500000, -360.000000) translate(0.000000, 274.000000)">
                <use id="Rectangle" mask="url(#mask-4)" stroke-width="8" transform="translate(169.000000, 29.000000) rotate(45.000000) translate(-169.000000, -29.000000) " xlink:href="#path-3"></use>
                <path d="M206.5,39.5 L338.213699,171.213699" id="Line" stroke-width="4" stroke-linecap="square"></path>
                <path d="M0.5,170.5 L131.503815,39.4961833" id="Line" stroke-width="4" stroke-linecap="square"></path>
                <polyline id="Line" stroke-width="4" stroke-linecap="square" points="31.5 163.5 169 26.890625 306.5 163.5"></polyline>
            </g>
        </g>
    </g>
</svg>